<svg width="46" height="46" viewBox="0 0 46 46" fill="none" xmlns="http://www.w3.org/2000/svg">
<path id="icon/alert/error_outline_24px" fill-rule="evenodd" clip-rule="evenodd" d="M0 23C0 10.304 10.281 0 22.977 0C35.696 0 46 10.304 46 23C46 35.696 35.696 46 22.977 46C10.281 46 0 35.696 0 23ZM25.2999 13.8C25.2999 12.535 24.2649 11.5 22.9999 11.5C21.7349 11.5 20.6999 12.535 20.6999 13.8V23C20.6999 24.265 21.7349 25.3 22.9999 25.3C24.2649 25.3 25.2999 24.265 25.2999 23V13.8ZM23.0001 41.4001C12.8341 41.4001 4.60014 33.1661 4.60014 23.0001C4.60014 12.8341 12.8341 4.60014 23.0001 4.60014C33.1661 4.60014 41.4001 12.8341 41.4001 23.0001C41.4001 33.1661 33.1661 41.4001 23.0001 41.4001ZM20.6999 29.8999V34.4999H25.2999V29.8999H20.6999Z" fill="white"/>
</svg>
